<svg width="187" height="134" viewBox="0 0 187 134" fill="none" xmlns="http://www.w3.org/2000/svg">
<path d="M116.006 132.676L181.534 101.368C184.786 99.8466 186.135 95.9231 184.628 92.7202L143.375 4.72054C141.868 1.43757 137.981 0.0763339 134.807 1.59771L5.17861 63.4137C2.00533 64.935 0.577348 68.8586 2.08466 72.0615L30.4855 132.596" stroke="#22BBEE" stroke-width="2.08314" stroke-miterlimit="10" stroke-linejoin="bevel"/>
<path d="M146.072 68.9395L144.882 104.892" stroke="#22BBEE" stroke-width="2.08314" stroke-miterlimit="10" stroke-linejoin="bevel"/>
<path d="M138.853 82.3911C138.853 86.3146 135.759 89.4375 131.872 89.4375C127.985 89.4375 124.891 86.3146 124.891 82.3911C124.891 78.4676 127.985 75.3447 131.872 75.3447C135.68 75.3447 138.853 78.4676 138.853 82.3911Z" stroke="#22BBEE" stroke-width="2.08314" stroke-miterlimit="10" stroke-linejoin="bevel"/>
<path d="M162.39 97.0678C165.952 95.5785 167.644 91.4564 166.168 87.861C164.693 84.2655 160.609 82.5582 157.047 84.0475C153.484 85.5368 151.793 89.6588 153.268 93.2543C154.744 96.8497 158.828 98.5571 162.39 97.0678Z" stroke="#22BBEE" stroke-width="2.08314" stroke-miterlimit="10" stroke-linejoin="bevel"/>
<path d="M31.7548 107.774L149.96 51.2432" stroke="#22BBEE" stroke-width="2.08314" stroke-miterlimit="10" stroke-linejoin="bevel"/>
</svg>
