<svg width="515" height="255" viewBox="0 0 515 255" fill="none" xmlns="http://www.w3.org/2000/svg">
<path d="M340.248 0.147868H126.938V121.811H340.248V0.147868Z" fill="white"/>
<path d="M340.395 121.958H126.79V0H340.395V121.958ZM127.084 121.663H340.1V0.294584H127.084V121.663Z" fill="#00BEF0"/>
<path d="M319.808 43.9443L294.186 74.337L294.411 74.5268L320.033 44.1341L319.808 43.9443Z" fill="black"/>
<path d="M221.683 87.3441L221.565 87.1968L190.966 37.3238L191.201 37.1765L221.742 86.9022L258.65 53.9383L258.827 54.1445L221.683 87.3441Z" fill="black"/>
<path d="M258.738 59.2997C261.652 59.2997 264.015 56.9389 264.015 54.0267C264.015 51.1145 261.652 48.7536 258.738 48.7536C255.824 48.7536 253.461 51.1145 253.461 54.0267C253.461 56.9389 255.824 59.2997 258.738 59.2997Z" fill="#96DCEB"/>
<path d="M319.878 49.3133C322.792 49.3133 325.155 46.9525 325.155 44.0403C325.155 41.1281 322.792 38.7672 319.878 38.7672C316.964 38.7672 314.601 41.1281 314.601 44.0403C314.601 46.9525 316.964 49.3133 319.878 49.3133Z" fill="#96DCEB"/>
<path d="M310.74 254.256L307.32 246.715L302.987 254.256H258.326C258.297 253.136 258.208 245.389 264.104 239.055C269.44 233.311 278.018 230.395 289.574 230.395H289.662L294.674 220.614H326.718V254.256H310.74Z" fill="white"/>
<path d="M326.57 220.761V244.151V254.108H310.857L307.585 246.92L307.349 246.39L307.054 246.891L302.898 254.108H258.473C258.443 252.606 258.561 245.212 264.221 239.143C269.527 233.428 278.076 230.512 289.603 230.512H289.78L289.868 230.365L294.791 220.761H326.57ZM326.864 220.467H294.585L289.573 230.247C256.38 230.247 258.178 254.403 258.178 254.403H303.075L307.32 247.038L310.651 254.403H326.864V244.151V220.467Z" fill="black"/>
<path d="M309.943 236.286C304.077 236.286 293.7 229.01 291.578 227.478C294.644 227.625 311.299 228.627 313.481 232.633C313.835 233.252 313.776 233.929 313.333 234.666C312.685 235.726 311.535 236.286 309.943 236.286Z" fill="white"/>
<path d="M292.05 227.654C293.759 227.743 297.503 227.978 301.365 228.538C308.234 229.51 312.361 230.954 313.333 232.692C313.658 233.281 313.599 233.9 313.186 234.577C312.567 235.638 311.476 236.138 309.914 236.138C304.401 236.138 294.85 229.628 292.05 227.654ZM291.077 227.301C291.077 227.301 303.281 236.433 309.943 236.433C311.506 236.433 312.744 235.932 313.481 234.724C317.313 228.273 291.077 227.301 291.077 227.301Z" fill="black"/>
<path d="M281.556 227.655C275.453 227.655 268.172 226.801 268.084 222.677C268.054 222.028 268.231 221.498 268.614 221.115C269.115 220.614 269.97 220.349 271.179 220.349C276.809 220.349 288.218 225.917 290.576 227.125C289.279 227.272 285.565 227.655 281.556 227.655Z" fill="white"/>
<path d="M271.149 220.496C276.426 220.496 286.95 225.474 290.045 227.036C288.453 227.213 285.122 227.507 281.555 227.507C275.512 227.507 268.319 226.682 268.23 222.676C268.23 222.057 268.378 221.586 268.702 221.232C269.174 220.761 269.999 220.496 271.149 220.496ZM271.149 220.201C269.174 220.201 267.877 220.879 267.906 222.676C267.995 226.859 275.187 227.802 281.525 227.802C286.537 227.802 291.047 227.213 291.047 227.213C291.047 227.213 277.516 220.201 271.149 220.201Z" fill="black"/>
<path d="M295.44 75.5318C295.44 75.5318 290.606 59.9777 283.118 56.2365C275.66 52.4953 263.308 46.8393 259.712 50.5805C256.115 54.3217 262.807 61.3918 274.392 66.0167C274.392 66.0167 260.242 64.6027 263.19 79.8327" fill="white"/>
<path d="M263.042 79.8322C262.128 75.06 262.777 71.4366 264.958 69.021C267.552 66.1635 271.679 65.8395 273.478 65.8395C273.507 65.8395 273.507 65.8395 273.537 65.8395C265.43 62.4518 259.505 57.6795 258.679 53.8499C258.414 52.5538 258.709 51.4049 259.593 50.4917C262.305 47.6931 269.999 49.549 283.176 56.1182C290.605 59.83 295.499 75.3545 295.558 75.5018L295.263 75.5902C295.204 75.4429 290.34 60.0362 283.029 56.3833C278.224 53.9972 263.661 46.6915 259.799 50.6979C258.974 51.5522 258.709 52.5832 258.944 53.791C259.77 57.6501 265.99 62.5402 274.392 65.8984C274.451 65.9279 274.509 65.9868 274.48 66.0752C274.451 66.1341 274.392 66.193 274.333 66.193C274.274 66.193 268.437 65.6627 265.135 69.2567C263.013 71.5839 262.364 75.1483 263.278 79.8322H263.042Z" fill="#1D1D1B"/>
<path d="M277.871 75.0899C277.871 75.0899 267.73 68.7563 263.22 79.8032C259.24 89.554 273.685 91.3215 276.308 88.1105C278.932 84.8995 274.923 83.0437 272.623 82.425" fill="white"/>
<path d="M271.591 89.7302C269.586 89.7302 267.376 89.2589 265.548 88.1689C263.75 87.1084 261.067 84.6045 263.072 79.7439C264.428 76.4445 266.403 74.3824 268.967 73.5576C273.33 72.1436 277.929 74.9421 277.959 74.9716L277.811 75.2073C277.752 75.1778 273.301 72.4382 269.056 73.8227C266.58 74.6181 264.663 76.6507 263.366 79.8617C261.951 83.3083 262.777 86.1658 265.725 87.9333C269.321 90.0543 274.775 89.7892 276.19 88.0217C276.927 87.1084 277.163 86.2542 276.927 85.4882C276.455 84.0742 274.392 83.0432 272.593 82.5718L272.682 82.2773C273.596 82.5129 276.602 83.4556 277.222 85.3704C277.516 86.2541 277.251 87.1968 276.455 88.1689C275.6 89.1705 273.743 89.7302 271.591 89.7302Z" fill="#1D1D1B"/>
<path d="M285.594 101.602C285.594 101.602 279.669 96.0346 275.365 88.7878L285.594 101.602Z" fill="white"/>
<path d="M285.476 101.72C285.417 101.661 279.491 96.0638 275.246 88.876L275.512 88.7287C279.757 95.8576 285.653 101.455 285.711 101.514L285.476 101.72Z" fill="#1D1D1B"/>
<path d="M242.584 209.45L243.705 201.231L236.011 205.326L198.189 181.582C198.867 180.404 204.674 171.036 216.996 171.036C223.158 171.036 230.026 173.363 237.367 177.988L237.455 178.047L246.918 172.45L274.068 189.477L256.174 217.963L242.584 209.45Z" fill="white"/>
<path d="M216.966 171.183C223.098 171.183 229.937 173.51 237.248 178.105L237.395 178.194L237.543 178.105L246.829 172.597L273.773 189.506L261.332 209.302L256.026 217.756L242.702 209.39L243.763 201.554L243.851 200.995L243.35 201.26L235.98 205.178L198.335 181.552C198.748 180.845 200.163 178.665 202.639 176.485C205.469 174.07 210.186 171.183 216.966 171.183ZM216.966 170.888C203.671 170.888 197.982 181.64 197.982 181.64L236.01 205.502L243.527 201.525L242.436 209.538L256.173 218.139L261.627 209.449L274.215 189.388L246.858 172.243L237.395 177.84C229.23 172.715 222.449 170.888 216.966 170.888Z" fill="black"/>
<path d="M326.658 62.8642L311.683 91.4683L331.227 102.103L347.706 85.989L344.876 71.0536L326.658 62.8642Z" fill="#00BEF0"/>
<path d="M337.831 57.4733H386.707L378.836 82.4246L337.831 102.103V57.4733Z" fill="#00BEF0"/>
<path d="M391.807 114.181H336.268L326.864 128.468L353.101 138.248L372.675 131.797L391.807 114.181Z" fill="#3C3C3C"/>
<path d="M391.807 114.181L385.086 147.587L363.301 128.733L376.006 114.181H391.807Z" fill="#3C3C3C"/>
<path d="M388.092 132.622L400.975 71.0536L373.942 72.4087L388.092 132.622Z" fill="#00BEF0"/>
<path d="M337.831 85.989C345.711 85.989 352.098 79.6056 352.098 71.7312C352.098 63.8568 345.711 57.4733 337.831 57.4733C329.951 57.4733 323.563 63.8568 323.563 71.7312C323.563 79.6056 329.951 85.989 337.831 85.989Z" fill="#00BEF0"/>
<path d="M293.317 142.549C303.623 142.549 311.977 134.201 311.977 123.902C311.977 113.603 303.623 105.255 293.317 105.255C283.011 105.255 274.657 113.603 274.657 123.902C274.657 134.201 283.011 142.549 293.317 142.549Z" fill="#3C3C3C"/>
<path d="M359.35 167.707C374.003 167.707 385.882 155.837 385.882 141.194C385.882 126.552 374.003 114.682 359.35 114.682C344.698 114.682 332.819 126.552 332.819 141.194C332.819 155.837 344.698 167.707 359.35 167.707Z" fill="#3C3C3C"/>
<path d="M309.698 132.918L278.112 113.108L242.429 169.922L274.015 189.732L309.698 132.918Z" fill="#3C3C3C"/>
<path d="M350.029 166.104L363.278 131.269L299.814 107.164L286.565 141.999L350.029 166.104Z" fill="#3C3C3C"/>
<path d="M308.204 178.488C318.51 178.488 326.864 170.14 326.864 159.841C326.864 149.543 318.51 141.194 308.204 141.194C297.898 141.194 289.544 149.543 289.544 159.841C289.544 170.14 297.898 178.488 308.204 178.488Z" fill="#3C3C3C"/>
<path d="M349.21 124.962C357.089 124.962 363.477 118.579 363.477 110.705C363.477 102.83 357.089 96.4468 349.21 96.4468C341.33 96.4468 334.942 102.83 334.942 110.705C334.942 118.579 341.33 124.962 349.21 124.962Z" fill="#00BEF0"/>
<path d="M326.864 158.899H289.573V220.761H326.864V158.899Z" fill="#3C3C3C"/>
<path d="M308.204 141.194C318.197 141.194 326.334 149.03 326.835 158.899H326.864V220.761H289.573V158.899H289.603C290.074 149.03 298.24 141.194 308.204 141.194ZM308.204 140.899C298.181 140.899 289.927 148.647 289.308 158.604H289.278V158.899V220.761V221.056H289.573H326.864H327.159V220.761V158.899V158.604H327.13C326.481 148.647 318.227 140.899 308.204 140.899Z" fill="white"/>
<path d="M391.807 66.8705V114.181H353.543L340.248 88.9643L377.539 66.8705H391.807Z" fill="#00BEF0"/>
<path d="M363.036 48.548C369.906 48.548 375.476 42.9823 375.476 36.1166C375.476 29.2509 369.906 23.6851 363.036 23.6851C356.165 23.6851 350.596 29.2509 350.596 36.1166C350.596 42.9823 356.165 48.548 363.036 48.548Z" fill="white"/>
<path d="M363.035 48.6947C356.108 48.6947 350.448 43.0387 350.448 36.116C350.448 29.1933 356.108 23.5373 363.035 23.5373C369.963 23.5373 375.623 29.1933 375.623 36.116C375.623 43.0387 369.963 48.6947 363.035 48.6947ZM363.035 23.8318C356.255 23.8318 350.742 29.3406 350.742 36.116C350.742 42.8914 356.255 48.4001 363.035 48.4001C369.815 48.4001 375.328 42.8914 375.328 36.116C375.328 29.3406 369.815 23.8318 363.035 23.8318Z" fill="black"/>
<path d="M386.707 85.989C394.587 85.989 400.975 79.6056 400.975 71.7312C400.975 63.8568 394.587 57.4733 386.707 57.4733C378.827 57.4733 372.439 63.8568 372.439 71.7312C372.439 79.6056 378.827 85.989 386.707 85.989Z" fill="#00BEF0"/>
<path d="M344.676 124.248L354.815 97.5919L295.567 75.0888L285.429 101.745L344.676 124.248Z" fill="#00BEF0"/>
<path d="M396.829 81.7786L376.298 61.9744L338.422 101.186L358.954 120.99L396.829 81.7786Z" fill="#00BEF0"/>
<path d="M365.629 114.387L365.423 114.181L365.511 114.063L396.73 81.747L396.818 81.6292C399.471 78.9779 400.916 75.4429 400.916 71.7017C400.916 63.9247 394.578 57.5911 386.795 57.5911C382.875 57.5911 379.219 59.1819 376.507 62.0394L376.389 62.1572L345.495 94.149L295.499 75.1778L295.616 74.9127L295.764 74.9716L345.436 93.825L376.419 61.7448C379.16 58.8873 382.845 57.326 386.825 57.326C394.784 57.326 401.24 63.7774 401.24 71.7312C401.24 75.5018 399.796 79.0663 397.143 81.7765L397.054 81.8943L365.629 114.387Z" fill="white"/>
<path d="M361.65 34.9677H370.524C370.524 34.9677 370.347 39.5632 366.072 39.5632C361.798 39.5632 361.65 34.9677 361.65 34.9677Z" fill="white"/>
<path d="M366.072 39.7099C361.709 39.7099 361.473 35.026 361.473 34.9671V34.8198H370.67V34.9671C370.67 35.026 370.434 39.7099 366.072 39.7099ZM361.797 35.1144C361.856 35.9098 362.387 39.4153 366.072 39.4153C369.756 39.4153 370.287 35.9098 370.346 35.1144H361.797Z" fill="black"/>
<path d="M348.414 34.9677H357.287C357.287 34.9677 357.11 39.5632 352.836 39.5632C348.591 39.5632 348.414 34.9677 348.414 34.9677Z" fill="white"/>
<path d="M352.865 39.7099C348.502 39.7099 348.266 35.026 348.266 34.9671V34.8198H357.464V34.9671C357.464 35.026 357.228 39.7099 352.865 39.7099ZM348.59 35.1144C348.649 35.9098 349.18 39.4153 352.865 39.4153C356.55 39.4153 357.08 35.9098 357.139 35.1144H348.59Z" fill="black"/>
<path d="M360.824 23.8613C360.824 23.8613 362.387 34.1128 374.945 32.5221C374.945 32.5515 372.144 22.2705 360.824 23.8613Z" fill="black"/>
<path d="M360.824 23.8613C360.824 23.8613 359.645 31.7561 351.361 31.7561C351.361 31.7561 353.454 25.3048 360.824 23.8613Z" fill="black"/>
<path d="M361.65 34.8198H357.316V35.1144H361.65V34.8198Z" fill="black"/>
<path d="M388.092 167.707H344.434V254.403H388.092V167.707Z" fill="#96DCEB"/>
<path d="M446.048 180.933H402.39V254.403H446.048V180.933Z" fill="#96DCEB"/>
<path d="M504.004 194.514H460.346V254.403H504.004V194.514Z" fill="#96DCEB"/>
<path d="M241.523 175.808C241.523 175.808 259.8 194.632 252.548 196.635C245.296 198.638 241.523 175.808 241.523 175.808Z" fill="white"/>
<path d="M251.663 196.9C250.985 196.9 250.307 196.694 249.629 196.281C244.234 192.835 241.493 176.515 241.375 175.837C241.375 175.778 241.404 175.719 241.463 175.69C241.522 175.66 241.581 175.66 241.64 175.719C242.2 176.308 255.643 190.242 254.316 195.221C254.11 196.016 253.52 196.546 252.606 196.812C252.282 196.87 251.958 196.9 251.663 196.9ZM241.758 176.25C242.259 179.019 245.03 192.982 249.776 196.016C250.661 196.576 251.575 196.723 252.489 196.487C253.314 196.252 253.815 195.81 253.992 195.103C255.201 190.743 243.881 178.488 241.758 176.25Z" fill="black"/>
<path d="M373.176 114.181H391.954L388.092 132.71L384.879 129.057L373.176 114.181Z" fill="#3C3C3C"/>
<path d="M361.65 57.4739L366.603 52.9079L370.966 57.4739L366.072 65.5161L361.65 57.4739Z" fill="white"/>
<path d="M366.072 65.6627C366.013 65.6627 365.954 65.6333 365.954 65.5744L361.502 57.5322C361.473 57.4733 361.473 57.3849 361.532 57.3555L366.514 52.7894C366.573 52.7305 366.661 52.7305 366.72 52.7894L371.054 57.3555C371.112 57.4144 371.112 57.4733 371.083 57.5322L366.219 65.5744C366.189 65.6333 366.131 65.6627 366.072 65.6627ZM361.827 57.5028L366.101 65.2209L370.788 57.4733L366.632 53.084L361.827 57.5028Z" fill="#1D1D1B"/>
<path d="M361.503 57.4738L356.55 52.9078L352.217 57.4738L357.081 65.516L361.503 57.4738Z" fill="white"/>
<path d="M357.08 65.6627C357.021 65.6627 356.992 65.6333 356.963 65.6038L352.098 57.5617C352.069 57.5028 352.069 57.4439 352.128 57.3849L356.461 52.8189C356.52 52.76 356.609 52.76 356.668 52.8189L361.65 57.3849C361.709 57.4439 361.709 57.5028 361.679 57.5617L357.228 65.6038C357.169 65.6333 357.139 65.6627 357.08 65.6627ZM352.393 57.5028L357.08 65.2503L361.355 57.5322L356.579 53.1429L352.393 57.5028Z" fill="#1D1D1B"/>
<path d="M221.712 92.3815C224.627 92.3815 226.989 90.0207 226.989 87.1085C226.989 84.1962 224.627 81.8354 221.712 81.8354C218.798 81.8354 216.436 84.1962 216.436 87.1085C216.436 90.0207 218.798 92.3815 221.712 92.3815Z" fill="#96DCEB"/>
<path d="M340.248 12.2842H126.937V12.5787H340.248V12.2842Z" fill="#00BEF0"/>
<path d="M220.504 5.83276H126.937V6.12734H220.504V5.83276Z" fill="#00BEF0"/>
<path d="M299.213 102.309L286.832 97.7724L286.92 97.5073L299.036 101.926L306.995 79.2725L307.261 79.3609L299.213 102.309Z" fill="white"/>
<path d="M295.027 96.653C294.909 96.653 294.762 96.653 294.644 96.6235C293.641 96.4173 292.963 95.4157 293.199 94.3847C293.288 93.8839 293.582 93.4715 294.025 93.2063C294.437 92.9412 294.938 92.8234 295.44 92.9412C295.941 93.059 296.353 93.3242 296.619 93.766C296.884 94.1785 297.002 94.6792 296.884 95.18C296.678 96.0343 295.882 96.653 295.027 96.653ZM293.465 94.4436C293.288 95.2979 293.848 96.1522 294.703 96.3289C295.558 96.5057 296.412 95.946 296.589 95.0917C296.678 94.6792 296.589 94.2668 296.353 93.8839C296.118 93.5009 295.764 93.2947 295.351 93.2063C294.938 93.118 294.526 93.2063 294.143 93.442C293.789 93.6777 293.553 94.0312 293.465 94.4436Z" fill="white"/>
<path d="M301.718 94.3859L301.616 94.6625L329.691 104.923L329.792 104.646L301.718 94.3859Z" fill="white"/>
<path d="M316.606 103.988L316.458 103.929L300.363 98.1848L300.451 97.8902L300.598 97.9491L316.724 103.694L316.606 103.988Z" fill="white"/>
<path d="M260.418 32.9345H260.124V37.8246H260.418V32.9345Z" fill="black"/>
<path d="M260.418 41.3007H260.124V46.1908H260.418V41.3007Z" fill="black"/>
<path d="M266.904 39.4153H262.01V39.7099H266.904V39.4153Z" fill="black"/>
<path d="M258.532 39.4153H253.638V39.7099H258.532V39.4153Z" fill="black"/>
<path d="M515 254.255H336.917V254.55H515V254.255Z" fill="black"/>
<path d="M241.434 254.255H0V254.55H241.434V254.255Z" fill="black"/>
<path d="M190.984 37.1479L152.275 77.3531L152.487 77.5574L191.197 37.3521L190.984 37.1479Z" fill="black"/>
<path d="M191.084 42.5379C193.998 42.5379 196.36 40.1771 196.36 37.2649C196.36 34.3526 193.998 31.9918 191.084 31.9918C188.169 31.9918 185.807 34.3526 185.807 37.2649C185.807 40.1771 188.169 42.5379 191.084 42.5379Z" fill="#96DCEB"/>
<path d="M152.378 82.7486C155.292 82.7486 157.654 80.3878 157.654 77.4756C157.654 74.5633 155.292 72.2025 152.378 72.2025C149.463 72.2025 147.101 74.5633 147.101 77.4756C147.101 80.3878 149.463 82.7486 152.378 82.7486Z" fill="#96DCEB"/>
<path d="M166.263 71.4077H27.593V175.808H166.263V71.4077Z" fill="white"/>
<path d="M166.41 175.955H27.4451V71.2598H166.41V175.955ZM27.7399 175.66H166.115V71.5544H27.7399V175.66Z" fill="#00BEF0"/>
<path d="M95.3649 133.417L108.689 103.546C106.714 102.662 104.621 101.985 102.41 101.484C84.7524 97.5956 67.3008 108.731 63.3801 126.376C59.4888 144.022 70.632 161.461 88.2899 165.379C105.948 169.268 123.4 158.133 127.32 140.487C128.588 134.802 128.264 129.146 126.672 123.931L95.3649 133.417Z" fill="#96DCEB"/>
<path d="M99.9047 129.204L131.241 119.719C128.529 110.793 122.044 103.252 113.229 99.3337L99.9047 129.204Z" fill="white"/>
<path d="M99.6394 129.44L113.141 99.1275L113.288 99.1864C121.985 103.045 128.588 110.528 131.359 119.66L131.388 119.807L99.6394 129.44ZM113.288 99.5104L100.17 128.969L131.035 119.601C128.264 110.646 121.808 103.34 113.288 99.5104Z" fill="#96DCEB"/>
<path d="M330.909 3.05986L330.7 3.26816L336.287 8.85061L336.495 8.64231L330.909 3.05986Z" fill="#00BEF0"/>
<path d="M336.312 3.0849L330.726 8.66733L330.934 8.87563L336.52 3.2932L336.312 3.0849Z" fill="#00BEF0"/>
<path d="M154.971 76.9102L154.763 77.1185L160.349 82.701L160.558 82.4927L154.971 76.9102Z" fill="#00BEF0"/>
<path d="M160.35 76.912L154.764 82.4944L154.972 82.7027L160.558 77.1203L160.35 76.912Z" fill="#00BEF0"/>
<path d="M325.626 8.89643H318.581V3.00476H325.626V8.89643ZM318.876 8.60185H325.331V3.29934H318.876V8.60185Z" fill="#00BEF0"/>
</svg>
