<svg width="167" height="24" viewBox="0 0 167 24" fill="none" xmlns="http://www.w3.org/2000/svg">
<g clip-path="url(#clip0)">
<path d="M133.415 0H132.91V23.9175H133.415V0Z" fill="#020203"/>
<path d="M142.842 14.6804H140.906V9.15463H144.273V9.73195H141.58V11.5464H142.842C143.936 11.5464 144.694 12.0412 144.694 13.1134C144.694 14.1856 144.021 14.6804 142.842 14.6804ZM142.842 14.1856C143.684 14.1856 144.021 13.7732 144.021 13.1134C144.021 12.4536 143.6 12.0412 142.758 12.0412H141.58V14.1856H142.842Z" fill="#020203"/>
<path d="M145.536 10.6392H146.209V11.299C146.378 11.0515 146.546 10.8866 146.798 10.7216C147.051 10.5567 147.303 10.5567 147.556 10.5567C148.65 10.5567 149.408 11.299 149.408 12.6186V12.701C149.408 13.9381 148.65 14.7629 147.556 14.7629C147.303 14.7629 146.967 14.6804 146.714 14.5979C146.462 14.433 146.293 14.268 146.125 14.0206V16.0825H145.452V10.6392H145.536ZM148.819 12.701C148.819 11.6289 148.229 11.134 147.556 11.134C146.883 11.134 146.209 11.6289 146.209 12.701V12.7835C146.209 13.8557 146.798 14.268 147.556 14.268C148.314 14.268 148.819 13.6907 148.819 12.701Z" fill="#020203"/>
<path d="M150.081 12.701C150.081 12.3711 150.165 12.1237 150.249 11.8763C150.334 11.6289 150.502 11.3814 150.67 11.2165C150.839 11.0515 151.091 10.8866 151.344 10.8041C151.596 10.7216 151.849 10.6392 152.101 10.6392C152.354 10.6392 152.606 10.7216 152.859 10.8041C153.111 10.8866 153.364 11.0515 153.532 11.2165C153.701 11.3814 153.869 11.6289 153.953 11.8763C154.037 12.1237 154.121 12.3711 154.121 12.6185V12.701C154.121 12.9484 154.037 13.1959 153.953 13.4433C153.869 13.6907 153.701 13.9381 153.532 14.1031C153.364 14.268 153.111 14.433 152.859 14.5154C152.606 14.5979 152.354 14.6804 152.101 14.6804C151.849 14.6804 151.596 14.5979 151.344 14.5154C151.091 14.433 150.839 14.268 150.67 14.1031C150.502 13.9381 150.334 13.6907 150.249 13.4433C150.165 13.1959 150.081 12.9484 150.081 12.701ZM153.448 12.701C153.448 11.7113 152.943 11.134 152.101 11.134C151.259 11.134 150.754 11.7113 150.754 12.701V12.7835C150.754 13.6907 151.259 14.268 152.101 14.268C152.943 14.268 153.448 13.6082 153.448 12.701Z" fill="#020203"/>
<path d="M155.637 12.6185V14.6804H154.963V10.6392H155.637V12.5361L157.32 10.6392H158.078L156.31 12.5361L158.246 14.6804H157.404L155.637 12.6185Z" fill="#020203"/>
<path d="M158.414 12.701C158.414 12.3711 158.414 12.1237 158.498 11.8763C158.583 11.6289 158.751 11.3814 158.919 11.2165C159.088 11.0515 159.34 10.8866 159.593 10.7216C159.845 10.6392 160.098 10.5567 160.35 10.5567C161.276 10.5567 162.202 11.134 162.202 12.5361V12.7835H159.088C159.088 13.6907 159.593 14.1856 160.434 14.1856C161.108 14.1856 161.445 13.9381 161.529 13.4433H162.202C162.034 14.268 161.36 14.6804 160.434 14.6804C160.182 14.6804 159.929 14.6804 159.677 14.5155C159.424 14.433 159.172 14.268 159.004 14.1031C158.835 13.9381 158.667 13.6907 158.583 13.4433C158.414 13.2783 158.414 12.9485 158.414 12.701ZM161.529 12.2887C161.445 11.4639 161.024 11.134 160.35 11.134C160.014 11.134 159.761 11.299 159.509 11.4639C159.256 11.7113 159.172 11.9588 159.172 12.2887H161.529Z" fill="#020203"/>
<path d="M163.128 10.6392H163.802V11.299C163.97 11.0515 164.138 10.8866 164.391 10.7216C164.643 10.5567 164.896 10.5567 165.148 10.5567C166.243 10.5567 167 11.299 167 12.6186V12.701C167 13.9381 166.243 14.7629 165.148 14.7629C164.896 14.7629 164.559 14.6804 164.307 14.5979C164.054 14.433 163.886 14.268 163.717 14.0206V16.0825H163.044V10.6392H163.128ZM166.327 12.701C166.327 11.6289 165.737 11.134 165.064 11.134C164.391 11.134 163.717 11.6289 163.717 12.701V12.7835C163.717 13.8557 164.307 14.268 165.064 14.268C165.906 14.268 166.327 13.6907 166.327 12.701Z" fill="#020203"/>
<path d="M12.2052 0.0824585C9.76415 0.0824585 7.40729 0.824727 5.38713 2.06184C3.45114 3.38143 1.85185 5.27834 0.925941 7.42266C3.362e-05 9.64947 -0.252487 12.0412 0.252554 14.3505C0.757594 16.6598 1.85185 18.8041 3.61949 20.4536C5.30296 22.1031 7.49147 23.2577 9.84832 23.7526C12.2052 24.2474 14.6462 24 16.9189 23.0928C19.1916 22.1856 21.0434 20.6185 22.3902 18.6392C23.7369 16.6598 24.4103 14.3505 24.4103 11.9587C24.4103 8.74225 23.1477 5.77318 20.7909 3.4639C18.6024 1.31957 15.4879 0.0824585 12.2052 0.0824585ZM10.5217 17.1546L9.5958 19.7938C7.91233 19.2165 6.48138 18.2268 5.4713 16.8247C4.46122 15.4227 3.87201 13.7732 3.87201 12.0412C3.87201 10.3093 4.37705 8.65978 5.4713 7.25772C6.48138 5.85565 7.91233 4.78349 9.5958 4.28864L10.5217 6.92782C9.42745 7.25772 8.50155 7.99998 7.82816 8.9072C7.15477 9.73194 6.73391 10.8041 6.73391 11.9587C6.73391 13.1134 7.0706 14.1856 7.74399 15.0928C8.41737 16.0825 9.42745 16.7423 10.5217 17.1546ZM14.7304 19.7938L13.8886 17.1546C14.9829 16.8247 15.993 16.0825 16.6664 15.1752C17.3398 14.268 17.7606 13.1134 17.7606 11.9587C17.7606 10.8041 17.4239 9.73194 16.7505 8.74225C16.0772 7.83504 15.0671 7.09277 13.9728 6.76287L14.8146 4.1237C16.498 4.70102 17.929 5.69071 18.939 7.09277C19.9491 8.49483 20.5383 10.2268 20.5383 11.9587C20.5383 13.6907 19.9491 15.3402 18.939 16.7423C17.8448 18.2268 16.4138 19.299 14.7304 19.7938Z" fill="#1DBCEE"/>
<path d="M124.24 14.1856L125.587 15.7526C124.997 16.3299 124.324 16.8247 123.482 17.1546C122.725 17.4845 121.883 17.6495 121.041 17.567C119.947 17.6495 118.853 17.4021 117.927 16.9897C116.159 16.0825 115.233 14.3505 115.233 12.2062C115.233 8.90721 117.506 6.51545 120.873 6.51545C124.577 6.51545 126.344 9.2371 126.092 12.7835H117.59C117.59 13.1959 117.759 13.6082 118.011 14.0206C118.264 14.433 118.516 14.6804 118.937 14.9278C119.61 15.3402 120.452 15.5051 121.21 15.5051C121.799 15.5051 122.304 15.4227 122.893 15.1752C123.398 14.9278 123.903 14.5979 124.24 14.1856ZM117.674 10.8866H123.651C123.566 10.2268 123.23 9.567 122.641 9.15463C122.051 8.74226 121.378 8.49483 120.705 8.57731C120.031 8.57731 119.274 8.74226 118.769 9.2371C118.179 9.567 117.759 10.1443 117.674 10.8866ZM60.8573 17.3196H63.8875L59.0897 11.8763L63.8034 6.76287H60.7731L57.1537 10.8866H56.0594V6.76287H53.7026V17.3196H56.0594V13.1134H57.2378L60.8573 17.3196ZM70.7898 8.65978C68.8538 8.65978 67.507 10.1443 67.507 12.0412C67.507 13.9381 68.7696 15.4227 70.7898 15.4227C72.7257 15.4227 73.9884 13.9381 73.9884 12.0412C73.9884 10.1443 72.7257 8.65978 70.7898 8.65978ZM71.1265 6.51545C74.1567 6.51545 76.4294 8.82473 76.4294 12.0412C76.4294 15.2577 74.2409 17.567 71.1265 17.567C70.4531 17.567 69.8639 17.4845 69.1905 17.2371C68.6013 16.9897 68.012 16.6598 67.5912 16.1649V21.6907H65.2343V6.76287H67.507V7.99999C67.9279 7.50514 68.5171 7.09277 69.1063 6.84535C69.8639 6.59793 70.4531 6.43298 71.1265 6.51545ZM101.85 6.76287H92.1698V8.9072H95.8734V17.3196H98.2303V8.82473H101.85V6.76287ZM52.1874 6.76287H42.5075V8.9072H46.127V17.3196H48.4838V8.82473H52.1874V6.76287ZM39.6456 12.0412C39.7298 11.5464 39.6456 11.134 39.4773 10.7216C39.3089 10.3093 39.0564 9.8969 38.8039 9.567C38.4672 9.2371 38.1305 8.98968 37.7096 8.74226C37.2887 8.57731 36.7837 8.49483 36.3628 8.49483C35.8578 8.49483 35.4369 8.57731 35.0161 8.74226C34.5952 8.90721 34.1743 9.2371 33.9218 9.567C33.5851 9.8969 33.3326 10.3093 33.2484 10.7216C33.0801 11.134 33.0801 11.6289 33.0801 12.0412C32.9959 12.5361 33.0801 12.9484 33.2484 13.3608C33.4168 13.7732 33.6693 14.1856 33.9218 14.5155C34.2585 14.8454 34.5952 15.0928 35.0161 15.3402C35.4369 15.5051 35.942 15.5876 36.3628 15.5876C36.8679 15.5876 37.2887 15.5051 37.7096 15.3402C38.1305 15.1752 38.5513 14.8454 38.8039 14.5155C39.1406 14.1856 39.3931 13.7732 39.4773 13.3608C39.6456 12.9484 39.6456 12.4536 39.6456 12.0412ZM30.4707 12.0412C30.4707 10.8866 30.8074 9.81442 31.3966 8.82473C31.9858 7.91751 32.9117 7.17525 34.006 6.6804C35.1002 6.26803 36.1945 6.10308 37.3729 6.3505C38.4672 6.59793 39.5614 7.09277 40.4032 7.91751C41.2449 8.74226 41.7499 9.73195 42.0025 10.8041C42.255 11.8763 42.0866 13.0309 41.6658 14.1031C41.2449 15.1752 40.4873 16 39.5614 16.6598C38.6355 17.3196 37.4571 17.6495 36.3628 17.6495C35.6053 17.6495 34.8477 17.567 34.1743 17.3196C33.5009 17.0722 32.8276 16.6598 32.2383 16.1649C31.7333 15.6701 31.2283 15.0103 30.9757 14.3505C30.639 13.5258 30.4707 12.7835 30.4707 12.0412ZM113.297 6.76287V17.3196H111.025V10.4742L105.385 17.3196H103.533V6.76287H105.806V13.5258L111.446 6.76287H113.297ZM90.6547 17.3196H88.2978V6.76287H90.6547V17.3196ZM84.5942 13.6907C84.5942 13.4433 84.5942 13.2783 84.51 13.1134C84.4259 12.9484 84.3417 12.701 84.1733 12.6185C84.005 12.4536 83.8366 12.3711 83.6683 12.2886C83.5 12.2062 83.2474 12.2062 83.0791 12.2062H80.7222V15.5051H83.0791C83.3316 15.5051 83.5 15.4227 83.6683 15.3402C83.8366 15.2577 84.005 15.0928 84.1733 15.0103C84.3417 14.8454 84.4259 14.6804 84.51 14.5155C84.5942 14.1031 84.5942 13.9381 84.5942 13.6907ZM86.9511 13.6907C86.9511 15.835 85.3518 17.3196 83.0791 17.3196H78.3654V6.76287H80.7222V10.1443H83.3316C83.8366 10.1443 84.3417 10.1443 84.7626 10.3093C85.1834 10.4742 85.6043 10.7216 86.0252 11.0515C86.3618 11.3814 86.6144 11.7938 86.7827 12.2062C86.9511 12.7835 86.9511 13.1959 86.9511 13.6907Z" fill="#020203"/>
</g>
<defs>
<clipPath id="clip0">
<rect width="167" height="24" fill="white"/>
</clipPath>
</defs>
</svg>
